<?xml version="1.0" standalone="no"?><!DOCTYPE svg PUBLIC "-//W3C//DTD SVG 1.1//EN" "http://www.w3.org/Graphics/SVG/1.1/DTD/svg11.dtd"><svg t="1655712323076" class="icon" viewBox="0 0 1024 1024" version="1.1" xmlns="http://www.w3.org/2000/svg" p-id="959" width="480" height="480" xmlns:xlink="http://www.w3.org/1999/xlink"><defs><style type="text/css">@font-face { font-family: feedback-iconfont; src: url("//at.alicdn.com/t/font_1031158_u69w8yhxdu.woff2?t=1630033759944") format("woff2"), url("//at.alicdn.com/t/font_1031158_u69w8yhxdu.woff?t=1630033759944") format("woff"), url("//at.alicdn.com/t/font_1031158_u69w8yhxdu.ttf?t=1630033759944") format("truetype"); }
</style></defs><path d="M512 906.9c-87.4 0-170-28.5-238.7-82.3-14.4-11.3-16.9-32.1-5.6-46.5 11.2-14.3 32-16.9 46.5-5.6 56.9 44.6 125.3 68.2 197.8 68.2 69.5 0 135.5-21.8 191.1-63.1 14.7-10.9 35.4-7.8 46.3 6.8 10.9 14.7 7.9 35.4-6.8 46.3-67.1 49.9-146.9 76.2-230.6 76.2zM864 516.2c-16.8 0-31.1-12.7-32.9-29.7C814.2 322.6 677 199 512 199c-157.5 0-293.8 117.2-317.2 272.6-2.7 18.1-19.6 30.2-37.7 27.8-18.1-2.7-30.5-19.6-27.8-37.7C157.5 274.3 322.1 132.9 512 132.9c199.1 0 364.6 149.1 385 346.9 1.9 18.2-11.3 34.4-29.5 36.3-1.2 0.1-2.4 0.1-3.5 0.1z" p-id="960"></path><path d="M409.2 460.2c-18.3 0-33.1-14.8-33.1-33.1v-50.5c0-18.3 14.8-33.1 33.1-33.1s33.1 14.8 33.1 33.1v50.5c0 18.3-14.8 33.1-33.1 33.1zM625.4 460.2c-18.3 0-33.1-14.8-33.1-33.1v-50.5c0-18.3 14.8-33.1 33.1-33.1s33.1 14.8 33.1 33.1v50.5c0 18.3-14.8 33.1-33.1 33.1zM249.8 756c-54.9 0-104.7-37.7-117.7-93.4-7.3-31.4-2-63.8 15-91.2 17-27.4 43.7-46.6 75.2-53.9 17.9-4.1 35.6 6.9 39.7 24.7 4.2 17.8-6.9 35.6-24.7 39.7-29.3 6.9-47.7 36.3-40.8 65.7 6.9 29.4 36.4 47.7 65.7 40.8 18-4.1 35.6 6.9 39.7 24.7 4.2 17.8-6.9 35.6-24.7 39.7-9.2 2.2-18.4 3.2-27.4 3.2zM786.2 754.4c-9.6 0-19.3-1.2-29-3.9-17.6-4.8-28-23-23.3-40.6 4.8-17.6 23.2-28.1 40.6-23.3 23.7 6.4 48.3-7.6 54.8-31.4 3.1-11.5 1.6-23.5-4.3-33.9-5.9-10.3-15.5-17.7-27-20.9-17.6-4.8-28-22.9-23.3-40.6 4.8-17.6 23-28.1 40.6-23.3 28.6 7.8 52.4 26.2 67.1 51.9 14.7 25.7 18.5 55.5 10.8 84.1-13.4 49.5-58.2 81.9-107 81.9zM520.3 693.2c-26.6 0-51.7-9.9-71.3-28.1l-12.1-11.2c-11.7-11.1-30.3-11-42.1-0.1-13.4 12.3-34.3 11.6-46.8-1.8-12.4-13.4-11.6-34.3 1.8-46.8 37.1-34.3 95.1-34.2 132 0.2l12.1 11.2c7.7 7.1 17.5 11 28.1 10.4 10.5-0.5 20.1-5 27.1-12.8 35.6-39.5 97-42.8 136.6-7.4 13.6 12.1 14.9 33.1 2.7 46.7-12.2 13.7-33.1 14.8-46.7 2.7-12.7-11.3-32.2-10.2-43.5 2.3-19 21-45 33.3-73.3 34.5-1.5 0.2-3.1 0.2-4.6 0.2z" p-id="961"></path></svg>